<svg width="21" height="15" viewBox="0 0 21 15" fill="none" xmlns="http://www.w3.org/2000/svg">
<path d="M20.3776 2.93288C20.1414 2.73041 19.808 2.68774 19.5286 2.82429L15.2534 4.9137L11.242 0.270492C11.0937 0.0987276 10.8783 6.10352e-05 10.6518 6.10352e-05C10.4254 6.10352e-05 10.21 0.0987276 10.0616 0.270492L6.05025 4.91366L1.7751 2.82425C1.49569 2.68774 1.16233 2.73037 0.926004 2.93284C0.689676 3.13531 0.595302 3.45915 0.685653 3.75758L3.6544 13.5615C3.75443 13.8919 4.05791 14.1177 4.40185 14.1177H16.9018C17.2457 14.1177 17.5492 13.8919 17.6492 13.5615L20.618 3.75762C20.7084 3.45919 20.614 3.13535 20.3776 2.93288ZM16.3227 12.549H4.98088L2.70155 5.0217L5.90552 6.58761C6.22365 6.74306 6.60591 6.66455 6.83767 6.39632L10.6518 1.98143L14.466 6.39632C14.6978 6.66459 15.0801 6.74302 15.3982 6.58761L18.6021 5.0217L16.3227 12.549Z" fill="white"/>
</svg>
