<svg width="21" height="21" viewBox="0 0 21 21" fill="none" xmlns="http://www.w3.org/2000/svg">
<path d="M18.2667 20.1174H13.7333C12.5 20.1174 11.5 19.1174 11.5 17.8841V11.7841C11.5 11.4174 11.8 11.1174 12.1667 11.1174H18.2667C19.5 11.1174 20.5 12.1174 20.5 13.3507V17.8841C20.5 19.1174 19.5 20.1174 18.2667 20.1174ZM12.8333 12.4507V17.8841C12.8333 18.3841 13.2333 18.7841 13.7333 18.7841H18.2667C18.7667 18.7841 19.1667 18.3841 19.1667 17.8841V13.3507C19.1667 12.8507 18.7667 12.4507 18.2667 12.4507H12.8333Z" fill="#A2A2A2"/>
<path d="M7.26667 20.1174H2.73333C1.5 20.1174 0.5 19.1174 0.5 17.8841V13.3507C0.5 12.1174 1.5 11.1174 2.73333 11.1174H8.83333C9.2 11.1174 9.5 11.4174 9.5 11.7841V17.8841C9.5 19.1174 8.5 20.1174 7.26667 20.1174ZM2.73333 12.4507C2.23333 12.4507 1.83333 12.8507 1.83333 13.3507V17.8841C1.83333 18.3841 2.23333 18.7841 2.73333 18.7841H7.26667C7.76667 18.7841 8.16667 18.3841 8.16667 17.8841V12.4507H2.73333Z" fill="#A2A2A2"/>
<path d="M18.2667 9.1174H12.1667C11.8 9.1174 11.5 8.8174 11.5 8.45074V2.35073C11.5 1.1174 12.5 0.117401 13.7333 0.117401H18.2667C19.5 0.117401 20.5 1.1174 20.5 2.35073V6.88407C20.5 8.1174 19.5 9.1174 18.2667 9.1174ZM12.8333 7.78407H18.2667C18.7667 7.78407 19.1667 7.38407 19.1667 6.88407V2.35073C19.1667 1.85073 18.7667 1.45073 18.2667 1.45073H13.7333C13.2333 1.45073 12.8333 1.85073 12.8333 2.35073V7.78407Z" fill="#A2A2A2"/>
<path d="M8.83333 9.1174H2.73333C1.5 9.1174 0.5 8.1174 0.5 6.88407V2.35073C0.5 1.1174 1.5 0.117401 2.73333 0.117401H7.26667C8.5 0.117401 9.5 1.1174 9.5 2.35073V8.45074C9.5 8.8174 9.2 9.1174 8.83333 9.1174ZM2.73333 1.45073C2.23333 1.45073 1.83333 1.85073 1.83333 2.35073V6.88407C1.83333 7.38407 2.23333 7.78407 2.73333 7.78407H8.16667V2.35073C8.16667 1.85073 7.76667 1.45073 7.26667 1.45073H2.73333Z" fill="#A2A2A2"/>
</svg>
